# xmcd
#
# Track frame offsets: 
#        150
#        15330
#        32249
#        49760
#        64128
#        78352
#        95107
#        112709
#        131464
#        147491
#        162774
#        183120
#        195352
#        216936
#        230683
#        245298
#        260526
#        277777
#        295370
#        311153
#        331895
#
# Disc length: 4637 seconds
#
# Revision: 0
# Processed by: cddbd v1.5.2PL0 Copyright (c) Steve Scherf et al.
# Submitted via: ExactAudioCopy v1.0b4
#
DISCID=26121b15
DTITLE=Neda Ukraden - Nalepse Ljubavne Pesme
DYEAR=2013
DGENRE=Pop
TTITLE0=Zora je
TTITLE1=Sanjam te
TTITLE2=Nisi ti bio za mene
TTITLE3=Doslo doba da se rastajemo
TTITLE4=Vrati se s kisom
TTITLE5=Ne zovi me u ponoc
TTITLE6=Oci tvoje govore
TTITLE7=Sumi, sumi javore
TTITLE8=Oci nevjerne
TTITLE9=Reci mi, gdje sam pogresila
TTITLE10=Samo je nebo iznad nas
TTITLE11=To mora da je ljubav
TTITLE12=Ostaricu, cekajuci na te
TTITLE13=Bolje da se nikad sreli nismo
TTITLE14=Sve me na tebe sjeca
TTITLE15=Posluzi nas sreco
TTITLE16=Boli, boli
TTITLE17=Moj Ivane
TTITLE18=Crne oci
TTITLE19=Svatovi
TTITLE20=Ponoc je
EXTD=
EXTT0=
EXTT1=
EXTT2=
EXTT3=
EXTT4=
EXTT5=
EXTT6=
EXTT7=
EXTT8=
EXTT9=
EXTT10=
EXTT11=
EXTT12=
EXTT13=
EXTT14=
EXTT15=
EXTT16=
EXTT17=
EXTT18=
EXTT19=
EXTT20=
PLAYORDER=
